<?xml version="1.0" standalone="no"?>
<!DOCTYPE svg PUBLIC "-//W3C//DTD SVG 20010904//EN"
 "http://www.w3.org/TR/2001/REC-SVG-20010904/DTD/svg10.dtd">
<svg version="1.0" xmlns="http://www.w3.org/2000/svg"
 width="260.000000pt" height="260.000000pt" viewBox="0 0 260.000000 260.000000"
 preserveAspectRatio="xMidYMid meet">
<metadata>
Created by potrace 1.14, written by Peter Selinger 2001-2017
</metadata>
<g transform="translate(0.000000,260.000000) scale(0.100000,-0.100000)"
fill="#000000" stroke="none">
<path d="M1710 2378 c-10 -4 -24 -15 -31 -25 -29 -38 -91 -83 -115 -83 -35 0
-104 -72 -104 -109 0 -36 -17 -51 -57 -51 -41 0 -56 31 -47 90 6 36 3 42 -25
67 -22 20 -31 36 -31 58 0 17 -5 36 -12 43 -9 9 -86 12 -285 12 l-273 0 -201
-201 -200 -202 -2 -84 c-1 -82 0 -86 26 -105 26 -19 27 -23 27 -108 0 -84 1
-89 26 -107 23 -17 26 -26 25 -76 0 -50 3 -61 29 -87 26 -27 30 -38 30 -85 0
-46 4 -59 25 -77 15 -13 25 -32 25 -49 0 -18 11 -40 30 -59 29 -30 31 -35 29
-112 -2 -75 0 -82 25 -104 24 -23 26 -31 26 -106 0 -76 2 -84 28 -111 23 -24
27 -36 25 -78 -2 -42 2 -54 27 -83 26 -29 30 -42 30 -90 0 -48 3 -58 25 -72
18 -12 25 -25 25 -49 0 -64 5 -65 273 -65 l242 0 203 203 c173 174 202 206
202 232 0 21 9 39 30 57 21 18 30 35 30 56 0 21 8 37 25 50 21 17 25 28 25 76
0 49 4 60 30 87 26 28 29 38 27 86 -2 49 1 57 26 77 26 21 27 26 27 108 0 82
2 88 26 107 25 20 27 26 28 110 1 85 2 90 29 111 20 16 27 30 27 55 0 26 6 39
25 51 23 15 25 22 25 100 0 80 2 86 30 116 26 27 30 38 30 89 0 51 3 61 25 75
24 16 25 20 25 129 0 80 -4 116 -13 123 -15 13 -466 22 -497 10z m-461 -102
c28 -29 33 -42 35 -90 2 -45 7 -61 29 -84 15 -15 27 -39 27 -53 0 -14 11 -36
24 -48 21 -20 24 -33 28 -111 3 -78 6 -92 28 -115 22 -23 26 -38 30 -112 4
-67 9 -88 23 -97 12 -8 22 -8 35 0 13 9 18 30 22 103 4 83 7 94 29 110 19 15
25 30 29 77 3 43 11 67 28 87 18 22 24 41 24 80 0 42 5 56 28 80 24 25 27 34
24 90 -1 34 0 74 4 90 l6 27 221 -2 222 -3 3 -80 c3 -75 1 -82 -23 -105 -21
-19 -25 -33 -25 -77 0 -45 -4 -58 -30 -85 -28 -29 -30 -36 -30 -113 0 -74 -2
-84 -25 -105 -15 -14 -25 -35 -25 -51 0 -18 -10 -38 -27 -53 -25 -23 -27 -32
-29 -111 -2 -78 -4 -88 -28 -110 -24 -22 -26 -30 -26 -108 0 -76 -2 -86 -25
-107 -21 -19 -25 -33 -25 -77 0 -45 -4 -58 -30 -85 -26 -27 -30 -38 -30 -88 0
-50 -3 -60 -25 -74 -16 -10 -25 -26 -25 -42 0 -14 -5 -34 -10 -45 -10 -18 -23
-19 -211 -19 -119 0 -208 4 -220 10 -12 7 -19 21 -19 40 0 20 -9 38 -25 52
-21 18 -25 31 -25 73 0 43 -5 59 -30 90 -25 31 -30 47 -30 90 0 42 -5 56 -25
75 -23 21 -25 31 -25 106 0 77 -2 85 -27 108 -22 20 -27 34 -28 81 -2 45 -7
61 -29 84 -22 23 -26 36 -26 82 0 46 -4 59 -25 79 -21 19 -25 33 -25 76 0 45
-5 59 -30 87 -28 32 -30 40 -30 114 0 72 -2 82 -25 103 -22 21 -25 31 -25 100
0 42 3 80 7 83 3 4 90 7 193 7 l186 0 33 -34z"/>
</g>
</svg>
